<svg width="61" height="56" viewBox="0 0 61 56" fill="none" xmlns="http://www.w3.org/2000/svg">
<path d="M30.1675 11.1613C28.754 8.10749 24.2307 2 17.4456 2C8.96429 2 -18.6 20.3225 30.1675 53.303" stroke="#F4245E" stroke-width="3.66449" stroke-linecap="round"/>
<path d="M30.1675 11.1613C31.5812 8.10749 36.1045 2 42.8896 2C51.3708 2 78.9352 20.3225 30.1675 53.303" stroke="#F4245E" stroke-width="3.66449" stroke-linecap="round"/>
<path d="M39.7295 17.0104C39.6618 17.6194 39.0155 18.5177 38.7288 19.0448C38.1251 20.1549 37.2429 21.5149 36.3389 22.4189C35.8807 22.8771 37.1349 21.3788 37.6455 20.98C38.8743 20.02 38.1636 21.292 37.6786 21.8566C37.44 22.1342 36.2614 23.4967 36.7772 22.3362C37.4172 20.8961 38.3185 19.4246 39.7791 18.714C40.3841 18.4197 39.8363 18.7873 39.6633 18.929C38.9283 19.5312 38.2881 20.1963 37.4305 20.6326C36.6142 21.0479 35.4103 21.7296 35.6525 20.3845C35.9012 19.0027 36.3246 17.1285 37.3147 16.0677C37.6088 15.7526 37.5345 16.0333 37.3974 16.2496C36.8325 17.1409 36.1038 17.9763 35.2555 18.6065C34.9106 18.8627 32.1755 20.5074 32.7167 18.9952C32.8682 18.5717 34.6164 15.0583 35.3134 15.588C35.81 15.9655 33.7052 19.2001 33.3369 19.5576C32.3215 20.543 32.2484 19.3121 32.1378 18.4659C31.9073 16.7036 32.2603 15.2699 33.4775 13.9175C33.7644 13.5987 34.9286 13.1933 34.5029 13.1401C34.1358 13.0942 33.6225 13.3757 33.2542 13.4296C32.9964 13.4673 31.6781 13.8414 31.6912 13.3717C31.7125 12.6055 32.2643 11.8535 32.6505 11.2215C32.8067 10.966 33.0889 10.5806 33.9241 10.163C35.7668 9.24161 37.8651 8.91796 39.3656 7.4174C39.4548 7.32819 40.1763 6.80567 39.9941 6.62349C39.6538 6.28317 38.2987 6.31977 37.877 6.38366C37.4963 6.44136 36.7602 6.59419 36.4877 6.9212C36.448 6.96883 36.0065 8.21729 35.8923 8.04591C35.6031 7.61208 37.6497 6.56883 37.9763 6.35885C38.5176 6.01088 39.1834 5.59547 39.7957 5.39955C40.3156 5.23316 40.5877 4.72102 41.0692 4.51467C41.9851 4.12215 42.6081 3.97289 43.6659 4.35755C45.017 4.84884 46.4219 4.66016 47.8009 5.06876C48.4133 5.25021 48.9716 5.34059 49.5541 5.66419C50.331 6.09578 50.8123 6.58782 51.4892 7.11968C52.6098 8.00013 53.6764 9.62367 54.2845 10.9073C54.5406 11.448 54.8313 11.9514 55.0949 12.4785C55.3874 13.0636 55.9972 13.9305 56.1121 14.5626C56.1975 15.0324 56.4489 15.7344 56.6248 16.1917C56.9335 16.9944 56.6992 18.2336 56.6992 19.0944C56.6992 22.4564 53.6141 24.823 51.0427 26.5373" stroke="#F4245E" stroke-width="3" stroke-linecap="round"/>
<path d="M48.5121 23.4113C48.5121 22.1195 49.3 21.5465 50.0586 20.5913C50.2675 20.3282 50.745 19.8657 50.745 19.4914C50.745 19.3048 50.6385 19.8501 50.563 20.0207C50.3777 20.4393 50.1205 20.8102 49.8518 21.1784C49.2197 22.0447 48.6308 22.949 47.9249 23.7586C47.7668 23.9401 46.8005 24.994 47.4205 24.1969C48.9101 22.2817 50.4834 20.4136 52.4651 18.9787C52.9692 18.6136 53.4144 17.9158 53.9371 17.6307C54.2707 17.4487 54.2961 19.7413 54.2927 19.8883C54.2524 21.6233 53.8312 23.6317 52.7959 25.0653C52.64 25.2811 51.6226 26.4441 51.6381 25.578C51.6591 24.4 52.0594 23.0573 52.5643 22.0054C52.788 21.5395 54.0801 19.1441 54.7393 19.1441C55.0826 19.1441 52.8019 23.6688 52.6222 23.924C51.2859 25.8222 49.0406 28.0394 46.6431 28.5055C45.8104 28.6674 47.1184 26.5588 47.2385 26.3554C48.0205 25.0313 48.9839 23.6227 50.1991 22.6505C50.7729 22.1915 50.1281 24.2495 50.0916 24.3375C49.4617 25.8567 48.1172 27.7678 46.4198 28.2078C46.1832 28.2692 47.8611 26.486 48.0986 26.2396C48.3327 25.9967 50.869 23.4037 51.3073 23.8083C51.8921 24.3481 50.5391 26.5044 50.2653 26.8846C49.7828 27.5548 49.1687 28.1486 48.4459 28.5552C48.4002 28.5809 48.2573 28.6054 48.2888 28.5634C48.3948 28.4221 48.6828 28.1641 48.785 28.0755C50.0524 26.9771 51.5263 26.0297 52.9778 25.1976C53.6315 24.8229 54.2756 24.4414 54.913 24.0398C54.9384 24.0238 55.4971 23.6237 55.5084 23.7256C55.6872 25.3349 54.1323 27.4431 52.9365 28.3732C52.5755 28.654 53.4673 27.6283 53.7221 27.2485C54.0122 26.8161 54.3056 26.3831 54.5822 25.9419C54.5982 25.9163 55.0059 25.2666 54.6979 25.7103C53.3219 27.6935 51.7579 28.9781 49.8518 30.4076C48.3642 31.5233 46.7375 32.7018 45.3861 33.9802C44.3338 34.9756 42.7221 35.592 42.0864 36.9904C41.8119 37.5943 43.2465 36.3442 43.8479 36.0642C45.3089 35.3841 46.9497 35.0087 48.2971 34.096C48.5353 33.9346 49.3556 32.9547 49.6202 32.9547C49.7498 32.9547 49.4721 33.1691 49.3804 33.2607C48.9849 33.6562 48.5928 34.0556 48.1896 34.4433C47.8996 34.7221 46.1525 36.6541 45.6673 36.4115C45.5027 36.3293 47.6185 33.4843 47.7513 33.3186C48.5499 32.3219 49.7642 30.8991 51.1254 30.6722C51.2413 30.6529 49.9672 32.9883 49.7608 33.2359C48.9556 34.2022 47.9754 35.3423 46.8498 35.9484C45.9663 36.4242 48.1122 34.388 48.7436 33.608C49.563 32.5959 50.4477 31.6023 51.4231 30.7384C51.6858 30.5057 51.2932 30.617 51.1915 30.6888C50.7645 30.9902 50.4508 31.5145 50.1495 31.9293C49.806 32.4022 48.8364 33.8194 49.0083 33.2607C49.1354 32.8476 49.5967 32.4524 49.8435 32.1112C50.2108 31.6035 50.486 31.0483 50.8111 30.5151C51.5634 29.2813 50.6345 30.6007 50.2984 31.0361C49.7694 31.7214 49.2791 32.436 48.7271 33.1036C48.5084 33.368 48.0091 34.1569 47.9828 33.8148C47.9094 32.8602 48.8763 31.5761 49.2564 30.7632C50.0826 28.9961 50.5879 27.1089 51.3983 25.3382C51.92 24.1981 51.9301 24.6435 51.3404 25.4953C50.5292 26.667 49.4898 27.6038 48.049 27.8439C47.4978 27.9358 47.8124 26.8718 47.867 26.5787C48.1734 24.9357 49.0036 23.3577 50.1164 22.1212C51.0425 21.0922 50.3768 22.1564 50.0172 22.6836C49.3653 23.6391 47.8609 25.9326 46.5273 26.0246C46.274 26.0421 46.7237 25.5507 46.8747 25.3464C47.175 24.94 47.4848 24.5416 47.7678 24.1225C47.8898 23.9418 48.5879 22.8636 48.0655 23.5602" stroke="#F4245E" stroke-width="3"/>
<path d="M45.2372 19.541H46.1304" stroke="#F4245E" stroke-width="3"/>
<path d="M40.3249 21.625C37.8382 21.7713 35.3105 22.5682 32.8986 23.1467C28.4027 24.225 24.0845 25.4912 19.4187 25.3382C18.462 25.3068 17.5297 25.0841 16.5739 25.0487C15.8582 25.0222 16.4655 24.6186 16.8054 24.4864C20.1228 23.1963 24.0655 23.0693 27.5811 22.7497C28.4711 22.6688 31.137 22.6446 30.2522 22.5182C29.1582 22.3619 27.9303 22.5241 26.8285 22.5182C24.7375 22.507 22.6531 22.3424 20.6013 21.9227C20.2843 21.8579 18.1258 21.529 19.4187 21.2446C21.7511 20.7315 24.1416 20.5119 26.5143 20.2853C28.4806 20.0975 30.4476 19.8852 32.4189 19.756C32.6177 19.743 34.8433 19.8468 34.9991 19.5741C35.1935 19.2339 34.2154 19.5933 33.8248 19.6237C32.3427 19.739 30.8599 19.8302 29.3756 19.9132C27.6949 20.0071 22.6559 20.2853 24.3393 20.2853C26.52 20.2853 28.6743 20.2212 30.8477 20.0207C31.7816 19.9345 32.826 19.952 33.7421 19.7229C34.3466 19.5718 32.4947 19.7131 31.8731 19.756C30.6131 19.8431 29.351 19.9486 28.0938 20.0703C27.3414 20.1431 25.4395 20.0902 24.8437 20.7401C24.353 21.2755 26.0668 21.5984 26.7789 21.7408C28.8066 22.1463 30.9087 22.0716 32.9648 22.0716C34.2153 22.0716 35.4693 22.0903 36.7193 22.0385C37.3187 22.0137 37.9981 21.9227 36.9343 21.9227C32.7281 21.9227 28.3931 21.8661 24.2152 22.3693C23.7683 22.4231 22.5394 22.4961 22.9169 22.7414C23.7963 23.3131 25.9321 23.1336 26.8616 23.1715C30.8492 23.3339 34.799 22.9647 38.7785 22.9647C39.0413 22.9647 38.2538 22.9997 37.9928 23.0309C36.0155 23.2673 34.0616 23.7198 32.1212 24.1556C30.2818 24.5687 27.4306 24.837 25.9684 26.2065C24.7106 27.3846 27.9498 28.1789 28.3832 28.2905C33.1266 29.5121 38.4368 29.4354 43.3021 29.134C43.3475 29.1312 44.0711 29.0982 44.2779 29.0017C44.3975 28.9459 44.0211 28.9314 43.8892 28.9273C42.0347 28.8693 40.1702 28.919 38.3153 28.919C35.9033 28.919 33.4912 28.9143 31.0792 28.919C30.2674 28.9206 28.641 28.9228 27.7547 28.9521C27.3506 28.9655 26.9018 28.8735 26.5473 29.0679C26.3586 29.1714 26.9614 29.1979 27.1758 29.2167C27.87 29.2778 28.9391 29.3028 29.5906 29.2994C32.1578 29.2863 34.718 29.08 37.2651 28.7702C38.4281 28.6287 39.59 28.4611 40.7467 28.274C41.8598 28.0939 40.2528 28.1027 40.2009 28.1003C37.932 27.9943 35.657 28.0259 33.3865 28.0259C31.1439 28.0259 28.8381 27.9024 26.6052 28.1747C26.4684 28.1914 26.3186 28.1872 26.2 28.2574C25.981 28.3872 26.7063 28.3236 26.9608 28.3236C28.8829 28.3236 30.8198 28.2151 32.7167 27.8936C34.4525 27.5993 36.2023 27.1301 37.844 26.4877C38.6469 26.1735 38.4785 26.0266 37.7282 25.8757C33.7493 25.0755 29.5847 25.1638 25.5467 24.9826C25.1114 24.963 23.1087 24.8551 24.9761 25.057C27.4147 25.3206 29.8863 25.3528 32.3362 25.3051C34.7247 25.2586 37.0907 25.0701 39.4649 24.8172C40.4468 24.7126 41.4284 24.6037 42.4089 24.4864C42.7194 24.4492 43.1274 24.5712 43.3352 24.3375C43.4817 24.1727 42.8937 24.325 42.6736 24.3375C42.0241 24.3744 40.7443 24.4764 40.1926 24.5195C36.5315 24.8055 32.8601 25.035 29.2102 25.4457C27.186 25.6735 24.9076 25.8262 22.9665 26.529C21.0506 27.2227 24.4485 27.8872 24.6701 27.9266C31.1574 29.0819 37.9589 28.3564 44.4433 27.538C44.6363 27.5136 44.8301 27.4943 45.0222 27.4635C45.11 27.4495 44.8465 27.4298 44.7576 27.4305C42.6272 27.4465 40.4952 27.6251 38.3732 27.7943C34.2377 28.1242 30.0899 28.4401 25.9684 28.919C24.7646 29.0589 21.3418 29.6215 22.4951 29.9941C24.449 30.6254 26.8625 30.6322 28.8629 30.7467C33.6354 31.0197 38.4271 31.0337 43.2028 30.8376C44.567 30.7816 45.9151 30.7096 47.2716 30.573C47.5003 30.55 48.5437 30.4624 47.6438 30.4241C44.3694 30.2848 41.0617 30.4076 37.7861 30.4076C34.0619 30.4076 30.3376 30.3974 26.6135 30.4076C25.7118 30.4101 23.2779 30.4122 22.1974 30.4738C21.8636 30.4928 20.9696 30.4856 21.2215 30.7053C21.5745 31.013 22.13 30.9431 22.5943 31.003C23.4605 31.1148 25.0266 31.2438 25.8361 31.3008C28.5123 31.4891 31.1919 31.5823 33.8744 31.5985C34.5524 31.6026 35.2308 31.5985 35.9088 31.5985C36.9319 31.5985 33.8631 31.6447 32.8407 31.6812C30.1157 31.7785 27.3854 31.7978 24.6618 31.921C23.7211 31.9636 22.8598 31.9962 21.9493 32.2104C21.6777 32.2743 21.137 32.3581 21.2215 32.6239C21.3412 33 23.1002 33.0741 23.2229 33.087C25.8567 33.3651 28.5165 33.3796 31.1619 33.3848C33.2193 33.3888 35.2758 33.3603 37.3312 33.269C38.5933 33.2129 37.362 33.2324 36.9839 33.2359C32.7549 33.2754 28.3858 33.4082 24.2152 34.1456C23.3712 34.2948 21.244 34.5484 21.8501 35.1545C22.4457 35.7502 24.3061 35.5841 25.0091 35.5928C28.9423 35.6417 32.9442 35.3388 36.8516 34.9064C36.976 34.8926 38.6984 34.687 37.4636 34.6087C35.8903 34.509 34.2914 34.5674 32.7167 34.5756C31.4102 34.5825 30.0786 34.5557 28.7802 34.7327C27.8573 34.8586 28.2445 35.0329 28.8464 35.0883C31.9956 35.3784 35.1155 34.4541 38.0755 33.484C38.7239 33.2715 39.3811 33.0743 40.0272 32.8555C40.372 32.7387 39.299 32.8013 38.9356 32.8224C37.9098 32.882 36.8628 32.9712 35.8592 33.2028C35.6058 33.2613 34.9771 33.4978 35.6276 33.6494C38.1107 34.228 41.1134 33.3883 43.4923 32.7314C44.1503 32.5497 45.2337 32.3961 45.8244 31.9872C46.1199 31.7826 45.1168 31.843 44.7576 31.83C42.4596 31.747 39.8577 31.978 37.6786 32.7562C37.0112 32.9946 37.3149 33.2514 37.844 33.3186C39.0467 33.4713 40.338 33.2354 41.5158 33.0209C43.262 32.7028 48.4946 31.7736 46.7258 31.921C44.749 32.0857 42.708 33.1074 41.5737 34.7493C40.9499 35.6521 41.1449 35.6874 42.1608 35.5515C44.1833 35.2808 46.1583 34.7552 48.1896 34.5177C50.148 34.2888 47.1567 35.0477 46.7093 35.2372C44.6299 36.1181 42.5149 37.2578 40.3084 37.7843C39.4049 37.9999 41.4861 37.6213 41.7308 37.5445C42.5986 37.2722 43.4108 36.8543 44.2779 36.5852C44.5914 36.4879 45.852 36.104 46.1138 36.395C46.1317 36.4148 45.4514 36.8189 45.4192 36.8416C45.1006 37.0661 44.8139 37.3305 44.4929 37.5528C43.8011 38.0317 44.1158 38.0444 44.8072 37.8339C45.4838 37.628 47.4411 36.8287 46.7506 36.9821C46.1449 37.1168 45.7175 37.7972 45.2372 38.1482C45.1557 38.2078 44.3834 38.868 44.6749 38.6775C45.0262 38.4478 45.382 38.24 45.7996 38.1565C46.6224 37.9919 44.2525 38.8068 43.4757 39.124C41.9293 39.7557 40.245 40.0079 38.7371 40.7284C37.5903 41.2763 39.2916 41.0483 39.6633 40.9765C40.2481 40.8635 41.026 40.4801 41.6233 40.5547C41.8105 40.5781 40.8158 41.9864 40.6888 42.1591C40.3726 42.5891 39.1694 43.6134 39.6468 43.3747C40.3845 43.0059 41.0708 42.1376 41.8135 41.6877C42.3906 41.3381 43.3043 40.9412 43.7817 40.4638C44.1202 40.1253 42.8566 40.7702 42.4751 41.0592C41.5679 41.7465 40.5268 42.0134 39.4979 42.4651C38.4899 42.9076 37.6473 43.5808 36.6035 43.9536C35.088 44.4949 34.111 45.2553 33.0309 46.3354C32.5799 46.7864 31.607 47.5388 31.41 48.1299C31.2132 48.7203 30.4859 48.9391 30.0538 49.3952C29.9328 49.5229 29.1216 50.2887 29.4666 50.3462C30.5031 50.519 31.7253 49.1909 32.4355 48.6013C33.9156 47.3725 35.4621 46.8255 37.2816 46.2527C38.0825 46.0005 39.123 46.038 39.8039 45.5084C40.4659 44.9935 40.8042 44.6826 39.7295 44.6979C38.9331 44.7093 38.1386 44.8959 37.3643 45.0701C37.205 45.1059 35.6944 45.3751 35.8096 45.1941C37.7375 42.1645 39.3284 38.9614 41.4496 36.0477C41.7811 35.5923 42.7005 34.51 41.7722 35.6093C39.9892 37.7208 38.5779 40.0806 36.6614 42.0929C36.5706 42.1882 35.7531 43.2056 35.4953 43.2424C35.322 43.2672 35.6557 42.9309 35.7434 42.7793C35.9679 42.3913 36.1712 42.0403 36.405 41.6546C37.5879 39.7035 38.4715 37.5536 39.746 35.6672C39.8896 35.4547 39.9658 35.3326 39.6551 35.6342C38.8237 36.4411 38.1632 37.4128 37.4636 38.3301C36.4637 39.641 35.4246 40.9129 34.2714 42.0929C33.8148 42.5601 33.1473 43.4048 32.5016 43.6559C32.3159 43.7281 32.5607 43.2549 32.6505 43.077C33.0784 42.2295 33.6105 41.4585 34.1721 40.6953C35.5416 38.8345 36.8636 37.1367 38.671 35.6838C39.1304 35.3144 37.6104 36.9219 37.5132 37.0318C35.7069 39.0736 33.8964 40.9893 31.4844 42.3245C30.2507 43.0075 31.5111 41.6492 31.7904 41.3238C32.3774 40.64 33.0158 40.0172 33.676 39.4052C33.7729 39.3153 34.3064 38.6609 34.4864 38.6609C34.6662 38.6609 34.2879 38.9617 34.1721 39.0992C33.6069 39.7705 33.0598 40.4565 32.5016 41.1336C31.8812 41.8862 31.2748 42.6548 30.6161 43.3747C30.5518 43.4451 30.2517 43.768 30.1282 43.8709C30.0635 43.9248 30.2103 43.7235 30.2605 43.6559C31.0313 42.6184 31.8357 41.6129 32.5182 40.5134C32.6963 40.2264 33.0413 39.9552 32.8821 39.6368" stroke="#F4245E" stroke-width="3"/>
<path d="M42.7066 20.1364C42.825 19.6629 44.2826 19.1001 43.7983 19.1606C43.2548 19.2285 42.5436 20.5348 42.1112 20.8807" stroke="#F4245E" stroke-width="26"/>
<path d="M44.1952 21.4762C44.1952 21.3302 43.952 19.8749 44.1621 19.9049C44.2196 19.9131 43.3813 22.1581 43.3021 22.3693" stroke="#F4245E" stroke-width="26"/>
<path d="M41.6646 5.10183C42.7459 4.69635 42.3178 5.05322 43.0044 5.83785C43.698 6.63059 42.925 6.62197 42.2601 6.9212C41.9369 7.06662 40.8563 6.88971 41.7556 6.65657C44.0271 6.06765 45.9632 6.44406 48.1896 6.95428C48.3577 6.99281 49.3266 7.18584 49.2233 7.18584C48.3397 7.18584 47.4941 6.88812 46.61 6.88812C45.4467 6.88812 47.5662 7.96258 47.8009 8.08725C49.1421 8.79976 50.9682 9.45506 51.1584 11.205C51.2899 12.414 50.7747 14.0071 50.4472 15.158C50.3302 15.5694 49.4904 16.863 50.0585 16.0677C50.9544 14.8134 48.3411 18.6278 47.5032 19.9214C47.354 20.1518 45.2097 23.281 45.9319 23.5436C46.4332 23.7259 46.8934 23.1771 47.2303 22.9151C47.7626 22.5011 46.7772 24.2294 46.3123 24.7179C45.4199 25.6558 45.6595 24.6786 45.7169 23.7917C45.7687 22.991 45.9148 22.1947 45.9484 21.3935C45.9884 20.442 45.5591 20.6399 44.9891 21.1371C44.1962 21.8288 41.4789 23.4537 42.3924 22.9317C43.2906 22.4184 45.0281 21.2444 46.1138 21.5092C46.5534 21.6165 45.5458 22.2251 45.1876 22.5016C43.6216 23.7108 41.9729 24.7247 40.2091 25.6194C39.2014 26.1305 38.175 26.61 37.2237 27.2237C36.7837 27.5076 37.8788 27.0434 37.9763 27.017C39.7407 26.5375 38.9425 28.092 38.4394 29.1671C37.2284 31.7549 35.7927 34.2216 34.8337 36.9243C34.4092 38.1205 34.138 39.3755 33.1798 40.2653C32.4349 40.9569 31.7124 41.6714 30.9717 42.3658C30.5543 42.7572 31.4081 40.5699 31.4844 40.3728C32.0048 39.0299 32.8966 37.2374 33.891 36.1634C34.5638 35.4368 32.816 37.8311 32.1957 38.603C31.6975 39.223 30.9956 40.4144 30.2026 40.6788" stroke="#F4245E" stroke-width="3"/>
<path d="M28.5652 50.6522C28.2234 50.5668 28.4163 48.2986 28.4163 47.8984C28.4163 47.2823 28.2675 46.6696 28.2675 46.0376C28.2675 45.3294 28.344 44.5738 28.193 43.8792C28.0558 43.2478 28.0111 42.3533 28.1517 41.7208C28.344 40.8554 28.3449 40.0671 28.4246 39.1902C28.491 38.4599 28.5991 37.5339 28.8298 36.8416C28.8894 36.6627 29.0118 36.4244 29.0118 36.7919C29.0118 38.4901 28.8062 40.2533 28.5486 41.9275C28.3479 43.2322 27.988 44.5056 27.7713 45.8061C27.6323 46.6398 28.4385 44.2526 28.7471 43.4657C29.4936 41.5621 30.5693 39.8406 31.625 38.0986C31.6794 38.0089 32.2746 36.6667 32.2866 37.3874C32.3099 38.7869 32.2866 40.1888 32.2866 41.5885C32.2866 42.1618 32.2866 42.7352 32.2866 43.3086C32.2866 43.6244 32.2727 42.0328 32.2701 41.9689C32.2 40.287 31.8637 38.6375 31.6333 36.9739C31.4706 35.7988 31.3988 36.1368 31.3935 37.1724C31.3727 41.1872 31.0958 53.2281 31.0958 49.2133C31.0958 48.2081 31.2658 47.3873 31.7077 46.4759C31.9566 45.9627 32.2257 45.4488 32.5513 44.9791C32.7002 44.7642 33.3144 44.5171 33.0805 44.4002C32.5008 44.1103 32.2601 43.4539 31.5754 44.2183C30.3816 45.5509 29.9063 47.4611 29.1937 49.0644C28.6836 50.2121 28.7587 49.9937 28.681 48.9486C28.6027 47.8971 28.5203 46.7425 28.1186 45.7565C28.0496 45.587 27.8209 45.3543 27.8209 45.161C27.8209 41.6353 27.8209 38.1096 27.8209 34.5839C27.8209 28.6634 29.2054 22.6201 31.3273 17.0931C31.8165 15.8189 32.4252 14.6196 32.5926 13.2807C32.6472 12.8441 32.8671 11.6633 32.2866 12.7597C32.1238 13.0672 31.1543 15.3565 30.7236 15.3565C30.4662 15.3565 30.3937 13.4198 30.1695 13.1732C29.5888 12.5344 28.2644 16.0536 28.1269 16.324C27.8259 16.916 26.4901 19.6461 27.9946 18.1021C29.8383 16.2098 32.3945 15.5668 34.3375 13.8844C35.9272 12.508 37.0012 10.5332 38.2327 8.84808C38.8464 8.00821 39.4706 6.81814 40.358 6.22654C41.0031 5.79647 41.9502 6.03616 42.6901 5.92055C43.9589 5.7223 41.9055 6.6766 41.5819 6.88813C41.4921 6.94686 40.9762 7.18584 41.2511 7.18584C41.7078 7.18584 40.4805 7.34343 40.3994 7.36778C37.4075 8.26534 34.484 9.42059 31.4596 10.1961C30.6749 10.3973 31.0296 9.86167 31.5258 9.5014C32.4329 8.84284 33.564 8.44182 34.6353 8.14515C34.8589 8.08321 36.4224 7.56468 35.6855 8.22784C35.3175 8.55911 34.8058 8.74344 34.3375 8.88116C34.0424 8.96798 34.8787 8.67283 34.8007 8.7075C33.8767 9.11813 33.1051 9.83844 32.3197 10.4607C31.8337 10.8457 31.1158 11.6516 30.4259 11.6516C29.8817 11.6516 29.5144 11.1018 29.1606 10.7584C28.7078 10.3189 27.8957 10.2616 27.2999 10.0803C26.2948 9.7744 25.057 9.21738 24.4799 8.31054C24.2728 7.9851 24.2144 7.53829 24.7776 7.64068C24.9664 7.67502 25.4551 7.9183 25.3399 7.76473C25.1159 7.46595 24.8744 7.21943 24.546 7.03698C23.8185 6.63281 23.2109 6.0394 22.4703 5.62284C22.1878 5.46392 21.5801 5.13436 21.2712 5.10184C20.5514 5.02607 19.8497 4.57876 19.1127 4.51468C18.2147 4.43658 17.3736 4.15468 16.5077 3.94406C15.7763 3.76614 13.8951 3.67266 13.2659 4.05983C12.412 4.58532 11.6594 4.71125 11.0662 5.47398C10.5994 6.07404 10.4031 6.742 10.0324 7.40913C9.66092 8.07784 8.96056 8.48628 8.32057 8.8977C7.43649 9.46604 7.3 10.2564 6.90642 11.1223C6.69753 11.5818 6.73712 11.8895 6.67486 12.3876C6.61495 12.8669 6.38542 13.2086 6.38542 13.7356C6.38542 14.1594 6.18533 14.4499 6.09597 14.852C6.01913 15.1978 6.13025 15.4853 5.97193 15.8196C5.82453 16.1307 5.19456 17.6642 5.19456 17.5728C5.19456 16.7899 5.19456 16.007 5.19456 15.2241C5.19456 14.6313 5.17717 14.042 5.26899 13.4544C5.28913 13.3255 5.47914 12.8243 5.34342 12.8424C5.02467 12.8849 4.55735 14.328 4.45027 14.5956C4.22625 15.1557 4.29852 15.7676 4.07813 16.3406C3.80495 17.0508 4.0037 18.1897 4.0037 18.9456C4.0037 20.7856 4.88205 22.4885 6.005 23.9323C6.42948 24.4781 6.62344 25.2092 6.94777 25.793C7.28639 26.4025 7.72514 27.0041 7.72514 27.7282C7.72514 29.6517 8.52322 30.7662 9.80914 32.1277C10.3066 32.6545 10.7049 33.2386 11.2233 33.7569C11.8189 34.3525 12.591 35.2154 12.9351 35.9898C13.2274 36.6473 13.7334 37.2206 14.2831 37.7016C14.7758 38.1327 15.5999 38.7097 15.9123 39.2564C16.0361 39.473 16.4113 39.5507 16.5077 39.7195C16.6263 39.927 17.0532 40.2539 17.252 40.4638C17.5565 40.7852 17.9126 41.0417 18.2279 41.3569C18.5914 41.7205 19.259 42.0507 19.518 42.4651C20.0154 43.2609 20.9647 43.8248 21.5027 44.6318C21.9689 45.331 22.7952 46.3058 23.504 46.7489C23.8751 46.9808 24.1334 47.4877 24.5791 47.642C25.181 47.8504 25.8748 47.8226 26.4729 48.1217C27.4608 48.6156 26.9845 47.3237 26.8947 46.7489C26.6802 45.3762 26.3323 44.2166 26.3323 42.8124C26.3323 41.4727 26.3323 40.133 26.3323 38.7932C26.3323 38.1754 26.6369 36.4465 26.2662 36.9408C25.5377 37.9121 25.612 39.7646 25.3069 40.8938C24.9249 42.307 24.3992 43.7516 23.6694 45.0287C23.4607 45.3939 23.4962 44.2048 23.4379 43.7882C23.281 42.6677 23.3552 41.5093 23.3552 40.3811C23.3552 39.9116 23.4535 38.506 23.4379 38.9752C23.4035 40.0049 23.0558 40.9953 22.6936 41.9441C22.4728 42.5223 22.4303 43.3159 22.0982 43.8379C22.0886 43.8529 22.0155 42.2853 22.0155 42.0764C22.0155 40.6461 22.0692 39.2199 22.1643 37.7926C22.276 36.1178 22.5222 38.6751 22.5778 39.0579C22.7376 40.1571 22.7874 41.2686 22.9417 42.3658C23.0536 43.162 23.3196 41.7724 23.3717 41.6133C23.759 40.43 24.1512 39.2724 24.4633 38.0655C24.8265 36.6611 24.8065 37.6095 24.6949 38.479C24.3536 41.1378 23.1386 43.7443 23.6198 46.4511C23.8201 47.5777 24.7292 48.2713 25.373 49.1967C25.4156 49.258 25.7436 47.4694 25.7369 47.0466C25.7156 45.7043 25.4392 44.3855 25.4392 43.0274C25.4392 41.2744 25.4271 46.7085 24.513 48.2043C24.3825 48.4178 24.1087 47.3027 24.0995 47.2616C23.9044 46.3946 23.7323 45.5306 23.4958 44.6731C22.7195 41.8591 21.8751 38.9761 20.8081 36.2627C20.717 36.0312 20.52 35.3614 20.4111 36.0146C20.2323 37.0871 20.1951 38.2142 19.7164 39.215C19.4937 39.6808 19.2711 37.7963 19.2451 37.6437C18.9844 36.1202 18.6471 34.6197 18.5917 33.0705C18.5468 31.8137 18.1452 38.0743 18.1452 36.8167C18.1452 35.7237 18.2603 34.6344 18.2857 33.5419C18.3008 32.8946 18.2801 32.2448 18.3271 31.5985C18.355 31.215 18.4429 30.9504 18.4429 31.4992C18.4429 32.8568 18.2827 34.2099 18.294 35.568C18.3064 37.0485 18.9242 33.8109 18.9721 33.5667C19.329 31.7485 19.6941 29.9431 20.1961 28.1582C20.2302 28.0371 20.378 27.7016 20.378 27.8274C20.378 28.7358 20.2093 29.6613 20.0803 30.5565C19.9247 31.6366 19.0533 34.7691 19.518 33.7817C20.1744 32.3868 20.2173 30.5393 20.593 29.0514C20.7571 28.4015 20.9322 27.7588 21.0561 27.0997C21.0572 27.0943 21.1791 26.2936 21.0975 27.0004C20.8597 29.0614 20.4419 31.1114 19.9976 33.1367C19.6953 34.5148 19.7702 33.5985 19.8157 32.7893C19.9278 30.7955 20.0803 28.8175 20.0803 26.8185C20.0803 26.3595 20.114 25.0972 19.7826 26.2809C19.4442 27.4895 19.2516 28.7335 18.8564 29.928C18.2283 31.8262 17.5776 33.6827 17.0205 35.5928C16.6729 36.7845 16.6361 38.0498 16.3258 39.2564C16.1112 40.0908 16.1361 39.6822 15.9867 39.0248C15.7313 37.9008 15.9123 36.5856 15.9123 35.4357C15.9123 33.9165 16.1365 32.1851 16.6566 30.7549C16.869 30.1708 17.0009 28.091 17.6159 27.8274C17.6166 27.8271 17.2074 29.8205 17.1859 29.928C16.8853 31.4307 16.6619 32.9415 16.21 34.4102C15.9181 35.3588 16.2008 32.4246 16.2431 31.4331C16.3121 29.8141 16.4543 28.1773 16.7724 26.5869C17.0294 25.3017 16.4036 27.5592 16.2927 27.8274C16.1983 28.0557 15.0879 31.0153 14.6718 30.8211C14.2863 30.6412 14.0902 28.4651 13.9771 28.0507C13.9435 27.9274 13.5792 26.2586 13.3486 26.7027C12.6286 28.0894 12.4301 29.9573 12.1082 31.4662C11.9714 32.107 11.8684 32.7476 11.7608 33.393C11.696 33.7819 11.7443 32.6047 11.7443 32.2104C11.7443 30.4481 11.7948 28.6803 11.5954 26.926C11.5505 26.5309 11.5072 26.1212 11.4466 25.7269C11.3812 25.3018 11.4415 26.587 11.4466 27.017C11.4621 28.3361 11.5809 29.5852 12.0089 30.8376C12.4101 32.0115 12.6075 29.904 12.6209 29.6302C12.6684 28.6555 12.6374 25.7269 12.6374 26.7027C12.6374 28.0488 12.9233 29.3946 13.1998 30.7053C13.3439 31.3888 13.5505 31.9896 13.4644 32.6901C13.3409 33.6946 13.3053 36.7257 13.2246 35.7169C13.0911 34.0483 12.8378 29.0427 13.0923 30.6971C13.1824 31.2826 13.2485 33.3222 14.0929 33.3848C14.4508 33.4113 14.4187 32.9484 14.4237 32.7066C14.4342 32.2045 14.3092 32.6918 13.9854 32.7728C13.4939 32.8957 13.3309 31.9844 13.2081 31.6977C12.2649 29.497 11.3845 27.2576 10.7354 24.9495C10.6452 24.6288 10.2557 21.7798 10.2557 23.2955C10.2557 24.6108 10.0858 26.065 10.3384 27.3643C10.497 28.1797 10.5534 26.9051 10.5534 26.7606C10.5534 25.363 10.5534 23.9654 10.5534 22.5678C10.5534 21.0013 10.2879 28.8265 10.4128 27.2651C10.4922 26.2726 10.6154 25.2798 10.7684 24.2962C10.9857 22.8997 10.6377 25.3578 10.6196 25.578C10.4836 27.2349 10.5534 28.912 10.5534 30.573C10.5534 31.2116 10.6578 29.7532 10.6692 29.6302C10.7172 29.1128 11.0113 27.6077 10.785 28.0755C10.552 28.557 10.5534 30.1982 10.5534 29.6633C10.5534 27.3061 10.8107 24.9785 10.8511 22.6339C10.8548 22.4214 10.9912 21.0935 10.785 21.9062C10.6336 22.503 10.4144 24.2709 10.2557 23.6759C9.8029 21.9779 10.3562 16.7214 9.89184 18.4163C9.57558 19.5707 9.26529 20.7562 8.88292 21.8897C8.50451 23.0114 8.56231 20.3371 8.54385 20.0455C8.4822 19.0713 8.65341 17.9381 8.45288 16.9856C8.20864 15.8255 7.69511 19.239 7.4605 20.4011C7.42074 20.598 6.99379 23.3114 6.98085 21.9393C6.96778 20.5541 7.17891 19.0274 6.89815 17.6638C6.68358 16.6215 5.78999 21.7215 5.78999 20.6574C5.78999 19.7064 5.78999 18.7554 5.78999 17.8043C5.78999 16.6097 5.39583 17.7886 5.26072 18.284C5.07829 18.9529 5.16656 18.315 5.26072 18.0855C5.33382 17.9073 5.44659 17.8388 5.47573 18.0938C5.56894 18.9093 5.49227 19.772 5.49227 20.5913C5.49227 21.6492 5.32672 22.8522 5.50881 23.8992C5.6278 24.5834 6.36169 22.9939 6.4185 22.8986C6.51011 22.7449 7.68637 20.9161 7.87399 21.1123C8.30942 21.5675 8.39208 23.141 8.45288 23.7338C8.62745 25.4358 8.92018 23.1225 9.21371 22.5843C9.33213 22.3672 9.24162 24.0473 9.21371 24.2548C9.10169 25.088 8.89295 25.6826 9.23852 24.4947C9.54555 23.4393 10.0267 22.3573 10.6775 21.4679C11.3225 20.5864 11.1518 21.6187 11.215 22.1874C11.3446 23.3535 11.373 24.8607 12.0089 25.8923C12.45 26.6078 13.6309 26.2959 14.2583 26.1073C15.5282 25.7256 16.6681 25.04 17.864 24.4864C18.2443 24.3103 17.3636 25.1542 17.252 25.272C16.9469 25.5941 16.8288 25.6844 17.1693 25.2638C17.8191 24.4611 15.9527 25.715 15.78 25.8096C15.4333 25.9994 14.4368 26.3987 15.3665 25.8426C17.3208 24.6737 19.3317 23.5322 21.1719 22.1874C21.9434 21.6236 22.3236 20.992 21.0892 21.1206C20.137 21.2197 19.2003 21.4158 18.2609 21.5919C16.9059 21.846 23.1519 19.2542 21.7839 19.4252C20.7195 19.5583 19.7179 20.076 18.6579 20.2688C18.4999 20.2975 18.0356 20.3799 18.1948 20.4011C19.072 20.518 20.2304 20.0715 21.0727 19.9049C23.6704 19.3912 26.267 18.8733 28.8629 18.3502C29.3427 18.2535 30.3628 18.1995 30.8229 17.9367C31.5503 17.521 29.1524 18.0695 28.3171 18.1351C25.6917 18.3414 23.0365 18.5161 20.4359 18.9456C19.9962 19.0182 18.8867 18.9694 19.1541 19.326C19.2894 19.5064 20.2567 19.2314 20.3449 19.2102C22.0587 18.7989 23.7198 18.2241 25.4474 17.8457C26.1439 17.6931 28.3883 17.4637 26.415 17.3412C24.6366 17.2308 22.8657 17.2135 21.1058 16.8947C20.9616 16.8685 20.8174 16.8412 20.6757 16.8037C20.3867 16.7272 20.6343 16.7281 20.7832 16.721C21.7721 16.6739 22.7625 16.6837 23.7521 16.63C25.5311 16.5335 27.344 16.4095 29.0945 16.0594C29.1515 16.048 29.3014 15.9698 29.2433 15.9684C28.4283 15.9499 27.6105 15.9684 26.7954 15.9684C25.5564 15.9684 23.7405 15.635 22.5613 16.0842C22.4372 16.1315 22.8254 16.1173 22.9582 16.1173C23.9303 16.1173 24.9163 16.1667 25.8857 16.0842C26.4743 16.0341 28.9284 15.8869 29.2599 15.3068C29.3707 15.1129 28.8344 15.166 28.6148 15.1249C27.3567 14.8896 26.0943 14.7087 24.8272 14.5295C23.5723 14.3519 22.3191 14.1629 21.0644 13.9837C20.7 13.9316 19.6211 13.8458 19.9811 13.7687C20.5617 13.6442 21.2938 13.7356 21.8749 13.7356C23.3429 13.7356 24.8153 13.7688 26.2827 13.719C26.4855 13.7122 29.7974 13.4772 29.7974 13.4296C29.7974 13.2935 25.9033 13.1847 25.6542 13.1732C23.836 13.0891 25.6947 13.1438 26.3323 13.1401C27.573 13.1329 28.8107 13.0733 30.0372 12.8755C30.3304 12.8282 28.0743 12.4665 27.7713 12.4289C25.6852 12.1705 23.4901 11.6681 21.3869 11.6681C19.9465 11.6681 27.0796 11.8966 25.7038 11.4696C24.7554 11.1753 23.6047 11.2746 22.6274 11.1719C21.5141 11.055 18.1752 10.7584 19.2947 10.7584C20.7429 10.7584 22.1973 10.7986 23.6446 10.7419C24.3806 10.713 25.1077 10.6318 25.8361 10.5269C26.5849 10.419 26.1424 10.3708 25.7038 10.3118C23.8437 10.0618 21.9209 10.1153 20.0472 10.0472C19.4616 10.0259 17.0845 10.1766 18.906 9.93144C19.6249 9.83466 20.4009 9.7314 21.0892 9.49313C21.6677 9.29291 21.3774 9.23024 20.9404 9.12099C20.2014 8.93624 19.4282 9.01352 18.691 8.82327C17.9521 8.63259 19.1175 8.5085 19.3443 8.44286C19.682 8.34511 20.0121 8.22452 20.3449 8.11207C20.4924 8.06225 20.9045 8.01647 20.775 7.93013C20.4631 7.72219 19.883 7.78127 19.5345 7.78127C18.5587 7.78127 23.4374 7.74981 22.462 7.78127C21.984 7.79669 21.5094 7.97502 21.0561 8.11207C20.8933 8.16131 19.5637 8.50643 19.8818 8.59999C20.3385 8.73429 20.8645 8.78635 21.3373 8.815C21.3821 8.81772 22.4602 8.81035 22.3959 8.93905C22.1442 9.44231 19.0998 8.14964 18.7075 8.09553C17.6408 7.9484 20.1621 7.50697 19.1541 7.30162C17.8134 7.02852 16.4585 6.83571 15.1184 6.55733C14.5812 6.44573 12.1632 6.20951 13.7042 5.76343C14.4076 5.55983 15.1004 5.32092 15.8213 5.18454C16.0098 5.14887 16.9372 5.10184 16.2431 5.10184C15.4939 5.10184 14.7413 5.07902 13.9937 5.13492C13.4929 5.17236 12.0349 5.19015 12.5051 5.36647C12.8997 5.51444 16.5188 5.65428 16.4829 5.77997C16.3808 6.13724 15.0689 6.37466 14.7959 6.45809C12.9985 7.00728 10.956 7.21515 9.36257 8.27746C9.0666 8.47478 8.40089 9.11444 9.11447 9.23677C10.9342 9.54872 12.7718 9.73799 14.6057 9.94797C14.948 9.98717 17.6924 10.456 17.343 10.5434C15.9077 10.9022 14.3662 10.9934 12.9021 11.1719C12.2317 11.2537 10.2089 11.3539 10.8842 11.3539C12.4233 11.3539 13.939 11.2315 15.474 11.1388C16.3835 11.0839 19.0916 11.1836 18.203 10.9817C16.5306 10.6016 14.7326 10.6336 13.0344 10.3945C11.9161 10.2372 12.6258 10.2367 13.1502 10.0968C14.1424 9.83224 15.2206 9.2699 16.1521 8.83154C16.8366 8.50945 16.0702 8.36642 15.7138 8.30227C14.9229 8.15991 14.1255 8.07429 13.3652 7.79781C12.977 7.65666 14.1749 7.6341 14.5808 7.55799C15.2685 7.42906 16.0785 7.4061 16.7393 7.18584C17.2362 7.02021 15.6917 7.17766 15.168 7.18584C13.9531 7.20482 12.4325 7.24606 11.3391 7.84743C10.8886 8.09518 11.8487 8.31842 12.0089 8.3767C12.7998 8.66428 11.4208 9.56053 11.215 9.69988C10.0318 10.5011 8.77511 11.1344 7.5432 11.85C7.03653 12.1444 5.9816 13.51 6.17867 12.9582C6.37628 12.4049 6.6176 11.7653 6.99739 11.3125C7.07752 11.217 8.02122 10.487 8.13863 10.8246C8.24923 11.1426 8.10357 14.2337 8.11382 14.2235C8.67967 13.6576 9.08748 12.9207 9.61893 12.3214C9.83647 12.0761 11.8699 10.1682 11.6781 11.2546C11.4517 12.5378 10.8962 13.7726 10.4211 14.9761C10.3555 15.1424 9.65319 16.6182 9.90838 15.5549C10.2575 14.1004 10.8835 12.7526 11.645 11.4696C11.7965 11.2144 13.7123 8.85219 12.6209 10.1134C11.1937 11.7626 9.71423 13.3851 8.12209 14.8768C7.93973 15.0477 5.0614 17.6398 6.61697 16.1173C8.15245 14.6145 9.69347 13.1078 11.645 12.1478C12.2933 11.8289 17.6399 9.3725 18.1782 10.808C18.5043 11.6775 16.3213 13.5395 15.8296 14.025C14.8787 14.9639 13.8406 15.845 12.9517 16.845C12.22 17.6681 14.6437 15.4342 15.5153 14.761C16.7304 13.8227 20.4381 11.1284 19.3526 12.2139C18.1847 13.3818 16.626 14.3216 15.2672 15.2407C14.0733 16.0484 12.8568 16.8252 11.645 17.6059C10.8932 18.0903 9.99365 18.8084 9.06485 18.929C8.50572 19.0017 9.69766 16.8446 9.80914 16.6466C10.2391 15.8827 10.8231 15.2614 11.4466 14.6535C11.7635 14.3446 12.6723 13.256 13.2329 13.289C13.433 13.3008 11.6992 15.3414 11.6037 15.4474C11.1952 15.9006 10.7998 16.3639 10.4046 16.8285C10.291 16.962 9.92174 17.2984 10.0903 17.2503C10.905 17.0175 11.9309 15.3785 12.4803 14.7776C12.9672 14.245 13.4378 13.6989 13.8945 13.1401C14.3621 12.5679 14.0587 12.8306 13.7125 13.1401C12.1831 14.5078 10.5188 15.6795 8.93253 16.9774C8.39199 17.4196 6.98255 18.7412 8.65136 18.1434C10.4615 17.495 12.1413 16.735 14.0598 16.4398C14.1214 16.4303 15.3544 16.1481 15.5153 16.3654C15.7093 16.6273 14.6752 17.6144 14.6057 17.6886C13.7448 18.6072 12.5837 19.4002 11.8766 20.4507C11.4183 21.1317 13.7281 20.0294 13.7291 20.0289C15.9313 18.9728 18.1641 18.0227 20.4194 17.0849C20.7201 16.9598 21.2879 16.8015 21.5854 16.5969C21.9523 16.3447 20.6948 16.6736 20.2622 16.7789C18.8931 17.1122 17.623 17.7441 16.2762 18.1351C15.5185 18.3551 16.8364 16.7038 16.8881 16.6383C17.2084 16.2326 17.5342 15.8407 17.9136 15.4888C18.068 15.3456 18.5774 15.0244 18.3684 15.0505C18.0897 15.0853 17.6287 15.4747 17.434 15.6046C16.5386 16.2015 15.6753 16.7913 14.6553 17.1593C14.5258 17.206 12.7371 17.7329 13.2163 17.5397C14.7079 16.9382 16.0785 16.0451 17.5497 15.3895C18.2389 15.0825 18.9289 14.7701 19.6255 14.4799C19.8036 14.4056 19.3658 14.7666 19.2202 14.8934C17.7381 16.1838 16.1101 17.658 15.259 19.4666C14.8237 20.3915 15.0372 20.8306 16.0115 20.4838C17.504 19.9525 18.8894 18.7306 20.0141 17.6389C20.7837 16.892 17.7242 17.8435 17.5993 17.887C16.6579 18.2154 15.7266 18.5763 14.7793 18.8877C14.4962 18.9808 13.7383 19.1878 13.8862 18.929C14.2472 18.2973 15.5372 17.6803 16.1604 17.4157C16.6374 17.2131 17.4003 16.9247 17.9301 17.1262C18.734 17.432 17.6947 18.6806 17.4836 18.9456C16.1491 20.6206 14.517 21.9335 12.8194 23.2128C11.9484 23.8692 11.9221 24.0719 13.0096 23.6594C14.644 23.0394 16.1118 22.4662 17.864 22.237C18.3243 22.1768 18.8761 22.0716 19.3526 22.0716C19.7385 22.0716 18.6373 22.3619 18.2775 22.5016C16.6533 23.1322 14.9621 23.5594 13.3321 24.1721C11.9683 24.6849 14.4093 24.4155 14.7876 24.3706C15.3261 24.3067 16.9425 24.1556 16.4002 24.1556C15.5819 24.1556 14.771 24.3858 13.9689 24.5195C13.2362 24.6416 11.0098 24.751 11.7526 24.751C14.1112 24.751 16.1682 24.1987 18.4263 23.5436C19.3528 23.2749 20.2864 23.0329 21.2133 22.7663C21.5293 22.6754 22.0334 22.5292 21.3869 22.5182C18.695 22.4721 15.9933 22.667 13.299 22.667C13.2639 22.667 10.4225 22.9203 11.4218 22.1708C13.4808 20.6265 16.2743 19.6771 18.6414 18.7636C19.6832 18.3616 20.8416 18.0823 21.8335 17.5562C22.4287 17.2406 22.1464 17.0891 21.6516 17.0435C18.9458 16.794 16.1904 17.0557 13.4727 16.8616C13.4204 16.8578 10.5853 16.7127 12.1247 16.7127C13.6821 16.7127 15.2331 16.8151 16.7889 16.8616C17.2913 16.8766 16.2963 17.5123 16.1439 17.672C15.2249 18.6347 14.7041 19.9411 15.3003 21.2363C16.1118 22.9992 18.4286 23.4408 20.1299 23.6677C21.56 23.8583 23.008 23.9177 24.4468 24.0067C25.0474 24.0439 26.5629 23.8633 27.1262 24.2218C27.2752 24.3165 25.0406 26.3364 24.9264 26.4546C23.3783 28.0574 22.0903 30.2054 23.5867 32.3097C24.8954 34.15 27.2754 35.0171 29.2516 35.8988C30.3267 36.3785 33.3034 37.7616 30.6492 38.5782C29.334 38.9829 25.1979 39.2012 26.5308 38.8594C27.8869 38.5117 29.3614 38.6996 30.7071 38.3632C30.9814 38.2946 30.6128 37.4368 30.6244 37.2054C30.7401 34.8908 34.2327 33.855 35.9915 33.2524C37.8077 32.6302 39.6186 31.8535 41.4662 31.3338C43.0164 30.8978 38.4634 32.5007 36.9839 33.1367C36.6612 33.2754 34.5526 34.1536 36.1321 34.1042C36.377 34.0966 39.6495 33.7456 39.6303 33.6494C39.5757 33.3768 36.4582 33.2884 36.1238 33.2194C35.0488 32.9973 32.5033 32.5399 32.0551 31.2511C31.773 30.4402 36.0549 28.8795 36.6035 28.6213" stroke="#F4245E" stroke-width="3"/>
<path d="M20.378 38.8925C19.5344 39.7361 17.9563 41.3544 19.6255 42.0846C19.8449 42.1806 21.3539 42.2221 21.3539 42.1343C21.3539 42.0029 20.6588 41.1913 20.5269 41.1253" stroke="#F4245E" stroke-width="3"/>
</svg>
